<svg width="171" height="151" viewBox="0 0 171 151" fill="#2D404D" xmlns="http://www.w3.org/2000/svg">
<path d="M95.2513 0.0834961C136.957 0.0834961 170.743 34.021 170.743 75.5002C170.743 116.979 136.957 150.917 95.2513 150.917C68.78 150.917 45.6271 137.191 32.1275 116.451L44.0433 107.024C54.6771 124.295 73.6067 135.833 95.3267 135.833C111.328 135.833 126.674 129.477 137.989 118.162C149.303 106.848 155.66 91.5016 155.66 75.5002C155.66 59.4988 149.303 44.1527 137.989 32.8381C126.674 21.5234 111.328 15.1668 95.3267 15.1668C64.5567 15.1668 39.2167 38.2443 35.5213 67.9585H56.3363L28.1304 96.0889L0 67.9585H20.2871C24.0579 29.8731 56.1854 0.0834961 95.2513 0.0834961ZM117.575 62.2268C121.345 62.3022 124.438 65.3189 124.438 69.1652V103.932C124.438 107.703 121.345 110.871 117.499 110.871H75.7938C71.9475 110.871 68.8554 107.703 68.8554 103.932V69.1652C68.8554 65.3189 71.9475 62.3022 75.7183 62.2268V54.6097C75.7183 43.071 85.1454 33.7193 96.6088 33.7193C108.148 33.7193 117.575 43.071 117.575 54.6097V62.2268ZM96.6088 44.2777C90.9525 44.2777 86.2767 48.8781 86.2767 54.6097V62.2268H107.016V54.6097C107.016 48.8781 102.34 44.2777 96.6088 44.2777Z" fill="#2D404D"/>
</svg>
