<svg width="24" height="24" viewBox="0 0 24 24" fill="none" xmlns="http://www.w3.org/2000/svg">
<mask id="mask0_123_78929" style="mask-type:alpha" maskUnits="userSpaceOnUse" x="0" y="0" width="24" height="24">
<rect width="24" height="24" fill="#D9D9D9"/>
</mask>
<g mask="url(#mask0_123_78929)">
<path d="M4 17V19H20V17H4ZM4 6H6.2C6.11667 5.85 6.0625 5.69167 6.0375 5.525C6.0125 5.35833 6 5.18333 6 5C6 4.16667 6.29167 3.45833 6.875 2.875C7.45833 2.29167 8.16667 2 9 2C9.5 2 9.9625 2.12917 10.3875 2.3875C10.8125 2.64583 11.1833 2.96667 11.5 3.35L12 4L12.5 3.35C12.8 2.95 13.1667 2.625 13.6 2.375C14.0333 2.125 14.5 2 15 2C15.8333 2 16.5417 2.29167 17.125 2.875C17.7083 3.45833 18 4.16667 18 5C18 5.18333 17.9875 5.35833 17.9625 5.525C17.9375 5.69167 17.8833 5.85 17.8 6H20C20.55 6 21.0208 6.19583 21.4125 6.5875C21.8042 6.97917 22 7.45 22 8V19C22 19.55 21.8042 20.0208 21.4125 20.4125C21.0208 20.8042 20.55 21 20 21H4C3.45 21 2.97917 20.8042 2.5875 20.4125C2.19583 20.0208 2 19.55 2 19V8C2 7.45 2.19583 6.97917 2.5875 6.5875C2.97917 6.19583 3.45 6 4 6ZM4 14H20V8H14.9L17 10.85L15.4 12L12 7.4L8.6 12L7 10.85L9.05 8H4V14ZM9 6C9.28333 6 9.52083 5.90417 9.7125 5.7125C9.90417 5.52083 10 5.28333 10 5C10 4.71667 9.90417 4.47917 9.7125 4.2875C9.52083 4.09583 9.28333 4 9 4C8.71667 4 8.47917 4.09583 8.2875 4.2875C8.09583 4.47917 8 4.71667 8 5C8 5.28333 8.09583 5.52083 8.2875 5.7125C8.47917 5.90417 8.71667 6 9 6ZM15 6C15.2833 6 15.5208 5.90417 15.7125 5.7125C15.9042 5.52083 16 5.28333 16 5C16 4.71667 15.9042 4.47917 15.7125 4.2875C15.5208 4.09583 15.2833 4 15 4C14.7167 4 14.4792 4.09583 14.2875 4.2875C14.0958 4.47917 14 4.71667 14 5C14 5.28333 14.0958 5.52083 14.2875 5.7125C14.4792 5.90417 14.7167 6 15 6Z" fill="black" fill-opacity="0.54"/>
</g>
</svg>
