<svg width="24" height="24" viewBox="0 0 24 24" fill="none" xmlns="http://www.w3.org/2000/svg">
<mask id="mask0_123_78935" style="mask-type:alpha" maskUnits="userSpaceOnUse" x="0" y="0" width="24" height="24">
<rect width="24" height="24" fill="#D9D9D9"/>
</mask>
<g mask="url(#mask0_123_78935)">
<path d="M2 20V10C2 9.45 2.19583 8.97917 2.5875 8.5875C2.97917 8.19583 3.45 8 4 8H7V6C7 5.45 7.19583 4.97917 7.5875 4.5875C7.97917 4.19583 8.45 4 9 4H15C15.55 4 16.0208 4.19583 16.4125 4.5875C16.8042 4.97917 17 5.45 17 6V8H20C20.55 8 21.0208 8.19583 21.4125 8.5875C21.8042 8.97917 22 9.45 22 10V20H2ZM4 18H20V15H18V16H16V15H8V16H6V15H4V18ZM4 10V13H6V12H8V13H16V12H18V13H20V10H4ZM9 8H15V6H9V8Z" fill="#D6FD51" fill-opacity="1"/>
</g>
</svg>
