<svg width="616" height="626" viewBox="0 0 616 626" fill="none" xmlns="http://www.w3.org/2000/svg">
<path d="M12 2C6.48 2 2 6.48 2 12C2 17.52 6.48 22 12 22C17.52 22 22 17.52 22 12C22 6.48 17.52 2 12 2ZM12 5C13.66 5 15 6.34 15 8C15 9.66 13.66 11 12 11C10.34 11 9 9.66 9 8C9 6.34 10.34 5 12 5ZM12 19.2C9.5 19.2 7.29 17.92 6 15.98C6.03 13.99 10 12.9 12 12.9C13.99 12.9 17.97 13.99 18 15.98C16.71 17.92 14.5 19.2 12 19.2Z" fill="#506B62"/>
<mask id="mask0_153_58608" style="mask-type:alpha" maskUnits="userSpaceOnUse" x="74" y="0" width="24" height="24">
<rect x="74" width="24" height="24" fill="#D9D9D9"/>
</mask>
<g mask="url(#mask0_153_58608)">
<path d="M95.025 11.05V19C95.025 19.55 94.8292 20.0208 94.4375 20.4125C94.0458 20.8042 93.575 21 93.025 21H79.025C78.475 21 78.0042 20.8042 77.6125 20.4125C77.2208 20.0208 77.025 19.55 77.025 19V11.05C76.6417 10.7 76.3458 10.25 76.1375 9.7C75.9292 9.15 75.925 8.55 76.125 7.9L77.175 4.5C77.3083 4.06667 77.5458 3.70833 77.8875 3.425C78.2292 3.14167 78.625 3 79.075 3H92.975C93.425 3 93.8167 3.1375 94.15 3.4125C94.4833 3.6875 94.725 4.05 94.875 4.5L95.925 7.9C96.125 8.55 96.1208 9.14167 95.9125 9.675C95.7042 10.2083 95.4083 10.6667 95.025 11.05ZM88.225 10C88.675 10 89.0167 9.84583 89.25 9.5375C89.4833 9.22917 89.575 8.88333 89.525 8.5L88.975 5H87.025V8.7C87.025 9.05 87.1417 9.35417 87.375 9.6125C87.6083 9.87083 87.8917 10 88.225 10ZM83.725 10C84.1083 10 84.4208 9.87083 84.6625 9.6125C84.9042 9.35417 85.025 9.05 85.025 8.7V5H83.075L82.525 8.5C82.4583 8.9 82.5458 9.25 82.7875 9.55C83.0292 9.85 83.3417 10 83.725 10ZM79.275 10C79.575 10 79.8375 9.89167 80.0625 9.675C80.2875 9.45833 80.425 9.18333 80.475 8.85L81.025 5H79.075L78.075 8.35C77.975 8.68333 78.0292 9.04167 78.2375 9.425C78.4458 9.80833 78.7917 10 79.275 10ZM92.775 10C93.2583 10 93.6083 9.80833 93.825 9.425C94.0417 9.04167 94.0917 8.68333 93.975 8.35L92.925 5H91.025L91.575 8.85C91.625 9.18333 91.7625 9.45833 91.9875 9.675C92.2125 9.89167 92.475 10 92.775 10ZM79.025 19H93.025V11.95C92.9417 11.9833 92.8875 12 92.8625 12H92.775C92.325 12 91.9292 11.925 91.5875 11.775C91.2458 11.625 90.9083 11.3833 90.575 11.05C90.275 11.35 89.9333 11.5833 89.55 11.75C89.1667 11.9167 88.7583 12 88.325 12C87.875 12 87.4542 11.9167 87.0625 11.75C86.6708 11.5833 86.325 11.35 86.025 11.05C85.7417 11.35 85.4125 11.5833 85.0375 11.75C84.6625 11.9167 84.2583 12 83.825 12C83.3417 12 82.9042 11.9167 82.5125 11.75C82.1208 11.5833 81.775 11.35 81.475 11.05C81.125 11.4 80.7792 11.6458 80.4375 11.7875C80.0958 11.9292 79.7083 12 79.275 12H79.1625C79.1208 12 79.075 11.9833 79.025 11.95V19Z" fill="#506B62"/>
</g>
<mask id="mask1_153_58608" style="mask-type:alpha" maskUnits="userSpaceOnUse" x="148" y="0" width="24" height="24">
<rect x="148" width="24" height="24" fill="#D9D9D9"/>
</mask>
<g mask="url(#mask1_153_58608)">
<path d="M160 22C158.783 21.85 157.575 21.5208 156.375 21.0125C155.175 20.5042 154.104 19.775 153.163 18.825C152.221 17.875 151.458 16.675 150.875 15.225C150.292 13.775 150 12.0333 150 10V9H151C151.85 9 152.725 9.10833 153.625 9.325C154.525 9.54167 155.367 9.86667 156.15 10.3C156.35 8.86667 156.804 7.39583 157.513 5.8875C158.221 4.37917 159.05 3.08333 160 2C160.95 3.08333 161.779 4.37917 162.488 5.8875C163.196 7.39583 163.65 8.86667 163.85 10.3C164.633 9.86667 165.475 9.54167 166.375 9.325C167.275 9.10833 168.15 9 169 9H170V10C170 12.0333 169.708 13.775 169.125 15.225C168.542 16.675 167.779 17.875 166.837 18.825C165.896 19.775 164.829 20.5042 163.637 21.0125C162.446 21.5208 161.233 21.85 160 22ZM159.95 19.95C159.767 17.1833 158.946 15.0917 157.488 13.675C156.029 12.2583 154.217 11.3833 152.05 11.05C152.233 13.9 153.079 16.025 154.588 17.425C156.096 18.825 157.883 19.6667 159.95 19.95ZM160 13.6C160.25 13.2333 160.554 12.8542 160.913 12.4625C161.271 12.0708 161.617 11.7333 161.95 11.45C161.917 10.5 161.729 9.50833 161.387 8.475C161.046 7.44167 160.583 6.43333 160 5.45C159.417 6.43333 158.954 7.44167 158.613 8.475C158.271 9.50833 158.083 10.5 158.05 11.45C158.383 11.7333 158.733 12.0708 159.1 12.4625C159.467 12.8542 159.767 13.2333 160 13.6ZM161.95 19.5C162.567 19.3 163.208 19.0083 163.875 18.625C164.542 18.2417 165.163 17.7208 165.738 17.0625C166.312 16.4042 166.804 15.5833 167.212 14.6C167.621 13.6167 167.867 12.4333 167.95 11.05C166.383 11.2833 165.008 11.8042 163.825 12.6125C162.642 13.4208 161.733 14.45 161.1 15.7C161.3 16.2333 161.471 16.8167 161.613 17.45C161.754 18.0833 161.867 18.7667 161.95 19.5Z" fill="#506B62"/>
</g>
<mask id="mask2_153_58608" style="mask-type:alpha" maskUnits="userSpaceOnUse" x="222" y="0" width="24" height="24">
<rect x="222" width="24" height="24" fill="#D9D9D9"/>
</mask>
<g mask="url(#mask2_153_58608)">
<path d="M226 20C225.45 20 224.979 19.8042 224.588 19.4125C224.196 19.0208 224 18.55 224 18V14C224.55 14 225.021 13.8042 225.413 13.4125C225.804 13.0208 226 12.55 226 12C226 11.45 225.804 10.9792 225.413 10.5875C225.021 10.1958 224.55 10 224 10V6C224 5.45 224.196 4.97917 224.588 4.5875C224.979 4.19583 225.45 4 226 4H242C242.55 4 243.021 4.19583 243.413 4.5875C243.804 4.97917 244 5.45 244 6V10C243.45 10 242.979 10.1958 242.587 10.5875C242.196 10.9792 242 11.45 242 12C242 12.55 242.196 13.0208 242.587 13.4125C242.979 13.8042 243.45 14 244 14V18C244 18.55 243.804 19.0208 243.413 19.4125C243.021 19.8042 242.55 20 242 20H226ZM226 18H242V15.45C241.383 15.0833 240.896 14.5958 240.538 13.9875C240.179 13.3792 240 12.7167 240 12C240 11.2833 240.179 10.6208 240.538 10.0125C240.896 9.40417 241.383 8.91667 242 8.55V6H226V8.55C226.617 8.91667 227.104 9.40417 227.463 10.0125C227.821 10.6208 228 11.2833 228 12C228 12.7167 227.821 13.3792 227.463 13.9875C227.104 14.5958 226.617 15.0833 226 15.45V18ZM234 17C234.283 17 234.521 16.9042 234.713 16.7125C234.904 16.5208 235 16.2833 235 16C235 15.7167 234.904 15.4792 234.713 15.2875C234.521 15.0958 234.283 15 234 15C233.717 15 233.479 15.0958 233.288 15.2875C233.096 15.4792 233 15.7167 233 16C233 16.2833 233.096 16.5208 233.288 16.7125C233.479 16.9042 233.717 17 234 17ZM234 13C234.283 13 234.521 12.9042 234.713 12.7125C234.904 12.5208 235 12.2833 235 12C235 11.7167 234.904 11.4792 234.713 11.2875C234.521 11.0958 234.283 11 234 11C233.717 11 233.479 11.0958 233.288 11.2875C233.096 11.4792 233 11.7167 233 12C233 12.2833 233.096 12.5208 233.288 12.7125C233.479 12.9042 233.717 13 234 13ZM234 9C234.283 9 234.521 8.90417 234.713 8.7125C234.904 8.52083 235 8.28333 235 8C235 7.71667 234.904 7.47917 234.713 7.2875C234.521 7.09583 234.283 7 234 7C233.717 7 233.479 7.09583 233.288 7.2875C233.096 7.47917 233 7.71667 233 8C233 8.28333 233.096 8.52083 233.288 8.7125C233.479 8.90417 233.717 9 234 9Z" fill="#506B62"/>
</g>
<path d="M305 11H303V13H305V11ZM309 11H307V13H309V11ZM313 11H311V13H313V11ZM315 4H314V2H312V4H304V2H302V4H301C299.89 4 299.01 4.9 299.01 6L299 20C299 21.1 299.89 22 301 22H315C316.1 22 317 21.1 317 20V6C317 4.9 316.1 4 315 4ZM315 20H301V9H315V20Z" fill="#506B62"/>
<mask id="mask3_153_58608" style="mask-type:alpha" maskUnits="userSpaceOnUse" x="370" y="0" width="24" height="24">
<rect x="370" width="24" height="24" fill="#D9D9D9"/>
</mask>
<g mask="url(#mask3_153_58608)">
<path d="M376 22C375.45 22 374.979 21.8042 374.588 21.4125C374.196 21.0208 374 20.55 374 20V8C374 7.45 374.196 6.97917 374.588 6.5875C374.979 6.19583 375.45 6 376 6H378C378 4.9 378.392 3.95833 379.175 3.175C379.958 2.39167 380.9 2 382 2C383.1 2 384.042 2.39167 384.825 3.175C385.608 3.95833 386 4.9 386 6H388C388.55 6 389.021 6.19583 389.413 6.5875C389.804 6.97917 390 7.45 390 8V20C390 20.55 389.804 21.0208 389.413 21.4125C389.021 21.8042 388.55 22 388 22H376ZM376 20H388V8H386V10C386 10.2833 385.904 10.5208 385.713 10.7125C385.521 10.9042 385.283 11 385 11C384.717 11 384.479 10.9042 384.288 10.7125C384.096 10.5208 384 10.2833 384 10V8H380V10C380 10.2833 379.904 10.5208 379.713 10.7125C379.521 10.9042 379.283 11 379 11C378.717 11 378.479 10.9042 378.287 10.7125C378.096 10.5208 378 10.2833 378 10V8H376V20ZM380 6H384C384 5.45 383.804 4.97917 383.413 4.5875C383.021 4.19583 382.55 4 382 4C381.45 4 380.979 4.19583 380.588 4.5875C380.196 4.97917 380 5.45 380 6Z" fill="#506B62"/>
</g>
<path d="M456 21.75C457.1 21.75 458 20.85 458 19.75H454C454 20.85 454.89 21.75 456 21.75ZM462 15.75V10.75C462 7.68 460.36 5.11 457.5 4.43V3.75C457.5 2.92 456.83 2.25 456 2.25C455.17 2.25 454.5 2.92 454.5 3.75V4.43C451.63 5.11 450 7.67 450 10.75V15.75L448 17.75V18.75H464V17.75L462 15.75Z" fill="#506B62"/>
<path d="M525 9.5L530 14.5L535 9.5H525Z" fill="#506B62"/>
<path d="M601.705 6L600.295 7.41L604.875 12L600.295 16.59L601.705 18L607.705 12L601.705 6Z" fill="#506B62"/>
<path d="M20 83H7.83L13.42 77.41L12 76L4 84L12 92L13.41 90.59L7.83 85H20V83Z" fill="#506B62"/>
<path d="M93 78.41L91.59 77L86 82.59L80.41 77L79 78.41L84.59 84L79 89.59L80.41 91L86 85.41L91.59 91L93 89.59L87.41 84L93 78.41Z" fill="#506B62"/>
<path d="M160 76L158.59 77.41L164.17 83H152V85H164.17L158.59 90.59L160 92L168 84L160 76Z" fill="#506B62"/>
<path d="M238.59 80.295L234 84.875L229.41 80.295L228 81.705L234 87.705L240 81.705L238.59 80.295Z" fill="#506B62"/>
<path d="M308 80.295L302 86.295L303.41 87.705L308 83.125L312.59 87.705L314 86.295L308 80.295Z" fill="#506B62"/>
<path d="M385.705 79.41L384.295 78L378.295 84L384.295 90L385.705 88.59L381.125 84L385.705 79.41Z" fill="#506B62"/>
<path d="M464 84L462.59 82.59L457 88.17V76H455V88.17L449.42 82.58L448 84L456 92L464 84Z" fill="#506B62"/>
<path d="M537 77V91H523V77H537ZM537 75H523C521.9 75 521 75.9 521 77V91C521 92.1 521.9 93 523 93H537C538.1 93 539 92.1 539 91V77C539 75.9 538.1 75 537 75Z" fill="#506B62"/>
<path d="M604 80C605.1 80 606 79.1 606 78C606 76.9 605.1 76 604 76C602.9 76 602 76.9 602 78C602 79.1 602.9 80 604 80ZM604 82C602.9 82 602 82.9 602 84C602 85.1 602.9 86 604 86C605.1 86 606 85.1 606 84C606 82.9 605.1 82 604 82ZM604 88C602.9 88 602 88.9 602 90C602 91.1 602.9 92 604 92C605.1 92 606 91.1 606 90C606 88.9 605.1 88 604 88Z" fill="#506B62"/>
</svg>
